# xmcd
#
# Track frame offsets:
#	150
#	12070
#	25460
#	36885
#	51180
#	63522
#	76627
#	89707
#
# Disc length: 1320
#
# Revision: 3
# Processed by: cddbd v1.5.1PL0 Copyright (c) Steve Scherf et al.
# Submitted via: FreeRIP 2.35 
# Normalized: r1:TDELIM( - );r2:TSWAP
#
DISCID=5d052608
DTITLE=Various Artist - Country's Best (Original Artists)
DYEAR=1988
DGENRE=Country
TTITLE0=The Kendalls - Sweet Desire
TTITLE1=Narval Felts - Somebody Hold Me
TTITLE2=Johnny Paycheck - For A Minute There
TTITLE3=Gary Puckett and Union Gap - The Girl Is A Woman Now
TTITLE4=Johnny Carver - Don't Tell (That Sweet Old Lady Of Mine)
TTITLE5=Jeannie Seely - Can I Sleep In Your Arms
TTITLE6=Harlan Howard - Sunday Morning Christian
TTITLE7=Del Reeves - There Wouldn't Be A Lonely Heart In Town
EXTD=Highlands Music\nNCD-2146
EXTT0=
EXTT1=
EXTT2=
EXTT3=
EXTT4=
EXTT5=
EXTT6=
EXTT7=
PLAYORDER=
